<?xml version="1.0" encoding="UTF-8"?>
<svg id="Velar" xmlns="http://www.w3.org/2000/svg" viewBox="0 0 1920 1920">
  <defs>
    <style>
      .cls-1 {
        fill: #140d0b;
      }
    </style>
  </defs>
  <path class="cls-1" d="M1728.06,1145.68h-786.94v-371.35h786.94v371.35ZM945.9,1140.9h777.39v-361.8h-777.39v361.8Z"/>
  <g>
    <path class="cls-1" d="M256.21,1075.04h33.08l88.23-234.52h-33.09l-56.76,149.53c-3.89,10.38-9.41,25.95-14.92,44.44-4.87-17.52-9.41-30.82-14.6-44.12l-57.09-149.86h-34.06l89.2,234.52Z"/>
    <path class="cls-1" d="M445.58,1078.93c39.25,0,65.85-19.14,73.63-53.19h-28.55c-5.19,18.16-20.76,27.9-44.44,27.9-30.17,0-47.68-18.49-49.95-51.9l122.61-.32v-11.35c0-47.03-29.52-78.17-74.6-78.17s-77.52,34.38-77.52,84.01,32.11,83.04,78.82,83.04ZM444.29,937.51c26.92,0,44.11,17.52,44.11,43.79h-91.47c3.89-27.9,20.76-43.79,47.36-43.79Z"/>
    <path class="cls-1" d="M584.09,1075.04v-234.52h-30.49v234.52h30.49Z"/>
    <path class="cls-1" d="M675.35,1078.93c25.63,0,47.36-11.35,55.47-29.52l3.24,25.63h25.95v-99.58c0-42.82-26.6-63.58-65.84-63.58s-68.12,21.73-68.12,54.82h26.6c0-19.14,14.6-30.49,40.22-30.49,21.41,0,37.3,9.41,37.3,36v4.54l-49.95,3.89c-37.3,2.92-59.03,21.08-59.03,50.27s20.11,48.01,54.17,48.01ZM684.11,1055.25c-19.79,0-32.11-8.43-32.11-25.3,0-15.57,11.03-25.95,37.95-28.55l40.55-3.24v8.43c0,29.84-17.52,48.65-46.38,48.65Z"/>
    <path class="cls-1" d="M893.06,915.13c-6.16-1.3-10.7-1.94-16.22-1.94-21.73,0-37.63,11.03-44.12,27.57l-1.94-24h-28.55v158.29h30.49v-84.01c0-30.49,17.84-48.01,46.71-48.01h13.62v-27.9Z"/>
  </g>
  <g>
    <polygon class="cls-1" points="1043.97 840.52 1012.11 840.52 1012.11 1075.57 1017.63 1075.57 1043.97 1075.57 1147.34 1075.57 1147.34 1045.99 1043.97 1045.99 1043.97 840.52"/>
    <path class="cls-1" d="M1276.56,919.04c-9.87-4.66-21.41-6.99-34.62-6.99s-25.63,2.28-35.92,6.83c-10.29,4.55-18.26,10.95-23.89,19.18-5.64,8.24-8.45,17.88-8.45,28.93h26.66c0-9.75,3.52-17.28,10.57-22.59,7.04-5.31,16.95-7.96,29.74-7.96,7.15,0,13.54,1.14,19.18,3.41,5.63,2.28,10.08,6.07,13.33,11.38,3.25,5.31,4.88,12.41,4.88,21.29v4.55l-50.07,3.9c-18.64,1.52-33.16,6.67-43.56,15.44-10.4,8.78-15.6,20.43-15.6,34.95s4.82,25.9,14.47,34.78c9.64,8.89,22.92,13.33,39.82,13.33,12.79,0,24.22-2.66,34.3-7.97,10.08-5.31,17.17-12.52,21.29-21.62l3.25,25.68h26.01v-99.8c0-14.31-2.77-26.17-8.29-35.6-5.53-9.43-13.22-16.47-23.08-21.13ZM1278.35,1006.98c0,14.95-4.12,26.82-12.36,35.6-8.24,8.78-19.62,13.16-34.13,13.16-9.97,0-17.83-2.11-23.57-6.34-5.75-4.23-8.61-10.57-8.61-19.02,0-7.8,2.98-14.19,8.94-19.18,5.96-4.98,15.66-8.13,29.1-9.43l40.64-3.25v8.45Z"/>
    <path class="cls-1" d="M1477.63,922.94c-10.84-7.26-23.84-10.89-39.01-10.89-13,0-24.6,2.71-34.78,8.13-10.19,5.42-17.88,13.33-23.08,23.73v-103.39h-30.56v235.05h27.63l2.28-28.93c5.2,10.62,12.84,18.75,22.92,24.38,10.08,5.63,21.29,8.45,33.65,8.45,15.38,0,28.66-3.53,39.82-10.57,11.16-7.04,19.78-16.85,25.84-29.42,6.06-12.57,9.1-26.76,9.1-42.59s-2.93-31.1-8.78-43.89c-5.85-12.78-14.2-22.8-25.03-30.07ZM1474.87,1024.86c-4.01,8.45-9.7,15.06-17.07,19.83-7.37,4.77-16.25,7.15-26.66,7.15s-19.34-2.38-26.82-7.15c-7.48-4.77-13.22-11.38-17.23-19.83-4.01-8.45-6.01-18.21-6.01-29.26s2-20.75,6.01-29.09c4.01-8.34,9.75-14.9,17.23-19.67,7.48-4.77,16.42-7.15,26.82-7.15s19.29,2.44,26.66,7.32c7.37,4.87,13.06,11.49,17.07,19.83,4.01,8.35,6.02,17.94,6.02,28.77s-2.01,20.81-6.02,29.26Z"/>
    <path class="cls-1" d="M1616.77,987.48l-27.96-6.83c-15.6-3.9-23.4-11.16-23.4-21.78,0-7.15,2.6-12.78,7.8-16.91,5.2-4.11,12.57-6.18,22.11-6.18s16.58,2.28,21.78,6.83c5.2,4.55,7.91,10.95,8.13,19.18h29.26c-.22-10.19-2.76-18.96-7.64-26.33-4.88-7.36-11.6-13.11-20.16-17.23-8.57-4.11-18.69-6.18-30.4-6.18s-22.05,1.95-31.05,5.85c-9,3.9-16.04,9.43-21.13,16.58-5.1,7.15-7.64,15.61-7.64,25.36,0,11.7,3.42,21.13,10.24,28.28,6.83,7.15,17.28,12.46,31.37,15.93l27.96,6.5c8.23,2.17,13.92,4.99,17.07,8.45,3.14,3.47,4.71,7.8,4.71,13,0,7.15-2.93,12.84-8.78,17.07-5.85,4.23-14.2,6.34-25.03,6.34-9.97,0-17.88-2.32-23.73-6.99-5.85-4.66-8.78-11-8.78-19.02h-29.26c0,15.17,5.53,27.31,16.58,36.41,11.05,9.1,25.9,13.65,44.54,13.65,12.78,0,23.89-2.01,33.32-6.02,9.43-4.01,16.85-9.75,22.27-17.23,5.41-7.48,8.13-16.2,8.13-26.17,0-11.7-3.36-20.97-10.08-27.8-6.72-6.83-16.8-11.75-30.23-14.79Z"/>
  </g>
  <rect class="cls-1" x="916.19" y="749.39" width="54.64" height="54.64"/>
  <rect class="cls-1" x="916.19" y="1115.97" width="54.64" height="54.64"/>
  <rect class="cls-1" x="1698.35" y="749.39" width="54.64" height="54.64"/>
  <rect class="cls-1" x="1698.35" y="1115.97" width="54.64" height="54.64"/>
</svg>